<svg xmlns="http://www.w3.org/2000/svg" viewBox="-8 80 1040 1040"><path d="m147.5 1010.5-45-45q26.5-43 58.5-93.5t67.75-104a3302 3302 0 0 1 72.75-104.5q96-132 190-239.25T671 240t156.5-118.5 121-41.5q41.5 0 62.5 20.5t21 62c0 33.333-13.83 73.667-41.5 121Q949 354.5 872 440T687.75 619.5t-239.25 190q-51 37-104.75 73.25T239.5 951.5a31007 31007 0 0 1-92 59m42.5-140L-8 752l45-64 244 50.5ZM360.5 1120l-119-199 132-91 51 245Zm-215-791L117 307l29-38 29 22ZM805 994.5 783 966l38-29.5 22 29Zm-537-596-28-23 29-36 28 23ZM736.5 872l-23-28 36-29 23 28ZM381 465l-28.5-22 34.5-45.5 30 21.5Zm288 294-22-28.5 46-36 21.5 30Zm-75.5-97q-8.5 0-14.5-8.5t-6-20.5 6-20.5 14.5-8.5 14.5 8.5 6 20.5ZM463 493.5l-73-80L-.5 212l87-96.5 579 167.5-35.5 31.5-530.5-154-37 40.5 352 180 75 82.5ZM900 1112 698.5 721l-80-73 30-26.5 82.5 75 180 352 40.5-37-154-530.5 31.5-35.5 167.5 579ZM174 944.5q70-42 139.25-88.5T449 760.25t128.5-99.75 117-100.5q92.5-84 159.25-159.75t102.5-136.75 35.75-101q0-19-12.25-30.75T948.5 120q-40 0-101.25 35.5t-137 102.25T551 417.5Q485 491 417.75 576.25T286.75 753 166.5 938Zm503-355q-8.5 0-14.5-8.5t-6-20.5q0-12.5 6-20.75t14.5-8.25 14.5 8.5 6 20.5Zm75.5-70.5q-8.5 0-14.5-8.5t-6-20.5 6-20.5 14.5-8.5 14.5 8.5 6 20.5ZM552 279.5l-76.5-46q0-17 8.75-34.25T512.5 164l49-46q23 4.5 45.25 27t26.75 46.5Zm326.5 356-46-76.5 88-81.5q24 4.5 46.5 26.75t27 45.25l-46 49q-18 19.5-35.25 28.25t-34.25 8.75m-53-191.5q-8.5 0-14.5-8.5t-6-20.5 6-20.5 14.5-8.5 14.5 8.5 6 20.5Zm115-109.5-16.5-15q12.5-12 17.25-28.5t4.75-31.5q0-23-14-44.5t-35.75-35.25T851.5 166q-15 0-31.5 5t-28.5 17.5l-15-16.5q26.5-20.5 44-25.5t40.5-5q28.5 0 53.5 15.25t40.5 40T970.5 250q0 23-4.75 40.5t-25.25 44"/></svg>